<?xml version="1.0" encoding="iso-8859-1"?>
<!-- Generator: Adobe Illustrator 19.0.0, SVG Export Plug-In . SVG Version: 6.00 Build 0)  -->
<svg version="1.1" id="Capa_1" xmlns="http://www.w3.org/2000/svg" xmlns:xlink="http://www.w3.org/1999/xlink" x="0px" y="0px"
	 viewBox="0 0 512 512" style="enable-background:new 0 0 512 512;" xml:space="preserve">
<path style="fill:#FFDE3E;" d="M196.381,412.034h119.271c2.93,0,5.347-2.225,5.474-5.053c1.785-39.848,15.51-78.541,40.43-110.471
	c16.669-21.358,26.552-47.937,26.552-76.747c0-70.79-59.659-128.118-133.053-127.618c-72.443,0.494-131.37,58.033-131.146,128.022
	c0.09,28.142,9.61,54.137,25.667,75.196c24.857,32.602,39.581,71.299,41.332,111.596
	C191.029,409.796,193.442,412.034,196.381,412.034z"/>
<g>
	<path style="fill:#FCD400;" d="M255.054,92.144c-3.954,0.027-7.864,0.234-11.73,0.593c66.936,6.233,119.269,60.724,119.269,127.025
		c0,28.811-9.883,55.389-26.553,76.748c-24.92,31.93-38.645,70.623-40.429,110.471c-0.127,2.828-2.543,5.053-5.474,5.053h25.514
		c2.93,0,5.347-2.225,5.474-5.053c1.785-39.848,15.51-78.541,40.429-110.471c16.669-21.358,26.553-47.937,26.553-76.748
		C388.107,148.973,328.448,91.644,255.054,92.144z"/>
	<path style="fill:#FCD400;" d="M301.427,269.541c-1.559-1.175-3.416-1.797-5.369-1.797c-1.237,0-2.438,0.251-3.568,0.746
		l-16.245,7.099l-16.746-7.132c-2.41-1.026-5.24-0.924-7.572,0.277l-13.852,7.134l-18.809-7.486
		c-2.887-1.156-6.315-0.677-8.794,1.248c-2.481,1.935-3.767,5.076-3.355,8.198c0.005,0.039,0.011,0.078,0.016,0.117l16.481,111.556
		h15.164L223.519,286.22l12.182,4.848c2.015,0.803,4.278,0.692,6.207-0.301l14.346-7.388l17.092,7.279
		c1.899,0.81,4.05,0.799,5.941-0.028l9.148-3.998L273.238,389.5h15.164l16.493-111.648
		C305.325,274.664,303.998,271.48,301.427,269.541z"/>
</g>
<g>
	<path style="fill:#FFB427;" d="M491.132,250.132h-46.958c-4.143,0-7.5-3.358-7.5-7.5s3.357-7.5,7.5-7.5h46.958
		c4.143,0,7.5,3.358,7.5,7.5S495.275,250.132,491.132,250.132z"/>
	<path style="fill:#FFB427;" d="M67.827,250.132H20.868c-4.143,0-7.5-3.358-7.5-7.5s3.357-7.5,7.5-7.5h46.959
		c4.143,0,7.5,3.358,7.5,7.5S71.969,250.132,67.827,250.132z"/>
	<path style="fill:#FFB427;" d="M422.264,416.396c-1.919,0-3.839-0.732-5.304-2.197l-33.205-33.205
		c-2.929-2.929-2.929-7.678,0-10.606c2.93-2.929,7.678-2.929,10.607,0l33.205,33.205c2.929,2.929,2.929,7.678,0,10.606
		C426.103,415.663,424.183,416.396,422.264,416.396z"/>
	<path style="fill:#FFB427;" d="M122.941,117.073c-1.92,0-3.839-0.732-5.304-2.197L84.433,81.672c-2.929-2.929-2.929-7.678,0-10.606
		c2.93-2.929,7.678-2.929,10.607,0l33.204,33.205c2.929,2.929,2.929,7.678,0,10.606C126.78,116.341,124.86,117.073,122.941,117.073z
		"/>
	<path style="fill:#FFB427;" d="M389.059,117.073c-1.92,0-3.839-0.732-5.304-2.197c-2.929-2.929-2.929-7.678,0-10.606l33.205-33.205
		c2.931-2.929,7.679-2.929,10.607,0c2.929,2.929,2.929,7.678,0,10.606l-33.205,33.205
		C392.898,116.341,390.978,117.073,389.059,117.073z"/>
	<path style="fill:#FFB427;" d="M89.737,416.396c-1.919,0-3.839-0.732-5.304-2.197c-2.929-2.929-2.929-7.678,0-10.606l33.204-33.205
		c2.93-2.929,7.678-2.929,10.607,0c2.929,2.929,2.929,7.678,0,10.606L95.04,414.199C93.576,415.663,91.656,416.396,89.737,416.396z"
		/>
	<path style="fill:#FFB427;" d="M256,61.958c-4.143,0-7.5-3.358-7.5-7.5V7.5c0-4.142,3.357-7.5,7.5-7.5c4.143,0,7.5,3.358,7.5,7.5
		v46.958C263.5,58.601,260.143,61.958,256,61.958z"/>
</g>
<path style="fill:#D96B37;" d="M289.665,385.624H222.35c-1.68,0-3.043,1.362-3.043,3.043v25.371h73.4v-25.371
	C292.707,386.986,291.345,385.624,289.665,385.624z"/>
<path style="fill:#B14418;" d="M289.665,385.624h-22.471v28.413h25.514v-25.371C292.707,386.986,291.345,385.624,289.665,385.624z"
	/>
<path style="fill:#FFB427;" d="M291.143,505.222L291.143,505.222c-22.552,9.037-47.719,9.037-70.271,0l0,0
	c-9.612-3.851-15.913-13.164-15.913-23.519v-69.669h102.097v69.669C307.056,492.058,300.755,501.371,291.143,505.222z"/>
<path style="fill:#FF9D00;" d="M281.542,412.034v69.669c0,10.355-6.301,19.668-15.913,23.519l0,0
	c-7.247,2.904-14.765,4.862-22.379,5.899c16.079,2.191,32.587,0.233,47.892-5.899l0,0c9.612-3.851,15.913-13.164,15.913-23.519
	v-69.669H281.542z"/>
<g>
	<rect x="204.96" y="437.51" style="fill:#FF8B00;" width="102.1" height="13.02"/>
	<path style="fill:#FF8B00;" d="M305.505,470.046h-98.996c-0.535,0-1.053,0.072-1.55,0.194v11.464c0,0.394,0.027,0.784,0.045,1.175
		c0.484,0.115,0.987,0.182,1.506,0.182h98.996c0.519,0,1.022-0.067,1.506-0.182c0.018-0.391,0.045-0.781,0.045-1.175V470.24
		C306.558,470.117,306.041,470.046,305.505,470.046z"/>
</g>
<g>
	<rect x="281.54" y="437.51" style="fill:#FF6900;" width="25.514" height="13.02"/>
	<path style="fill:#FF6900;" d="M281.542,470.046v11.658c0,0.455-0.027,0.906-0.051,1.357h24.015c0.519,0,1.022-0.067,1.506-0.182
		c0.018-0.391,0.045-0.781,0.045-1.175V470.24c-0.498-0.122-1.015-0.194-1.551-0.194H281.542z"/>
</g>
<g>
</g>
<g>
</g>
<g>
</g>
<g>
</g>
<g>
</g>
<g>
</g>
<g>
</g>
<g>
</g>
<g>
</g>
<g>
</g>
<g>
</g>
<g>
</g>
<g>
</g>
<g>
</g>
<g>
</g>
</svg>
