<svg id="Capa_1" enable-background="new 0 0 512.777 512.777" height="512" viewBox="0 0 512.777 512.777" width="512" xmlns="http://www.w3.org/2000/svg"><g><g><g><path d="m155.5 253.474c2.03-.62 4.14-.94 6.27-.94 4.43 0 8.89 1.38 12.71 4.25 8.06 6.06 10.73 16.95 6.4 26.04l-30.94 64.91 1.84 14.38c.56 4.31.83 8.64.83 12.96 0 16-3.79 31.84-11.13 46.19l2.794 71.976c.249 6.405-4.877 11.734-11.287 11.734h-90.614c-6.369 0-11.478-5.262-11.29-11.628l2.417-81.942-10.77-20.97c-23.88-46.5-19.36-102.51 11.67-144.57l33.9-45.95 33.7-45.59z" fill="#ffe5c2"/></g><path d="m164.384 252.712c-.869-.108-1.742-.177-2.614-.177-2.13 0-4.24.32-6.27.94l-9.589-17.771c-7.119 2.954-13.195 7.788-18.867 14.224l-73.429 105.378c-4.436 6.366.059 15.102 7.818 15.193l54.402.64z" fill="#fed2a4"/><path d="m66.033 493.346 2.417-81.942-10.77-20.97c-23.88-46.5-19.36-102.51 11.67-144.57l33.9-45.95 13.497-18.259-14.747-27.331-33.7 45.59-33.9 45.95c-31.03 42.06-35.55 98.07-11.67 144.57l10.77 20.97-2.417 81.942c-.188 6.366 4.922 11.628 11.291 11.628h34.95c-6.369 0-11.479-5.262-11.291-11.628z" fill="#fed2a4"/><g id="XMLID_188_"><g><path d="m505.28 40.514v271.3c0 18.07-14.65 32.71-32.71 32.71h-369.25l-15.81-2.91c-11.33-5.14-19.21-16.55-19.21-29.8v-271.3c0-18.07 14.65-32.71 32.71-32.71h371.56c18.06 0 32.71 14.64 32.71 32.71z" fill="#d7d0d6"/></g></g><path d="m130.637 323.074v-299.569c0-5.628 1.166-10.953 3.245-15.7h-32.872c-18.06 0-32.71 14.64-32.71 32.71v271.3c0 13.25 7.88 24.66 19.21 29.8l15.81 2.91h33.726c-4.021-6-6.409-13.415-6.409-21.451z" fill="#baafb9"/><path d="m186.493 240.794c-7.192-5.403-15.741-8.26-24.723-8.26-4.101 0-8.176.61-12.193 1.837-8.706 2.699-16.101 8.052-21.389 15.486l-55.572 78.187c3.406 5.944 8.616 10.722 14.894 13.569l15.81 2.91h70.306l25.309-53.099c8.389-17.608 3.158-38.9-12.442-50.63z" fill="#baafb9"/><g id="XMLID_189_"><g><path d="m435.13 40.514v271.3c0 1.5-1.21 2.71-2.71 2.71h-331.41c-1.49 0-2.71-1.21-2.71-2.71v-271.3c0-1.5 1.22-2.71 2.71-2.71h331.41c1.5 0 2.71 1.21 2.71 2.71z" fill="#c8effe"/></g></g><path d="m186.493 240.794c-7.192-5.403-15.741-8.26-24.723-8.26-4.101 0-8.176.61-12.193 1.837-2.57.797-5.025 1.825-7.344 3.071-5.247 2.816-11.596-1.086-11.596-7.041v-192.597h-29.627c-1.49 0-2.71 1.21-2.71 2.71v271.3c0 1.5 1.22 2.71 2.71 2.71h86.916l11.01-23.099c8.388-17.609 3.157-38.901-12.443-50.631z" fill="#99e6fc"/><path d="m174.48 256.784c-3.82-2.87-8.28-4.25-12.71-4.25-2.13 0-4.24.32-6.27.94-4.29 1.33-8.2 4.02-11.01 7.97l-68.73 96.7-18.485 22.369 29.545 67.375h55.694l-1.034-26.624c7.34-14.35 11.13-30.19 11.13-46.19 0-4.32-.27-8.65-.83-12.96l-1.84-14.38 30.94-64.91c4.33-9.09 1.66-19.98-6.4-26.04z" fill="#ffe5c2"/><circle cx="269.136" cy="179.625" fill="#f37c7c" r="89.446"/><path d="m239.161 216.289v-73.328c0-10.419 11.695-16.557 20.27-10.638l53.113 36.664c7.444 5.139 7.444 16.138 0 21.276l-53.113 36.664c-8.575 5.919-20.27-.219-20.27-10.638z" fill="#f9f7f8"/></g><g><path d="m472.566.305h-371.552c-22.173 0-40.211 18.038-40.211 40.21v156.936l-32.436 43.96c-2.459 3.333-1.751 8.029 1.582 10.488 1.341.989 2.9 1.465 4.447 1.465 2.3 0 4.57-1.055 6.041-3.048l20.365-27.601v89.101c0 12.71 6.044 24.524 15.917 32.032l-7.076 9.956c-2.399 3.376-1.607 8.058 1.769 10.458 3.377 2.4 8.058 1.608 10.458-1.769l68.732-96.706c2.157-3.035 5.371-5.021 9.051-5.593 3.686-.571 7.346.347 10.323 2.584 5.181 3.896 6.916 10.97 4.127 16.821l-30.938 64.91c-.62 1.301-.853 2.754-.668 4.184l1.849 14.375c2.428 18.886-.873 37.829-9.546 54.78-.586 1.145-.867 2.422-.817 3.708l3.254 83.706c.157 4.04 3.481 7.209 7.489 7.208.098 0 .197-.002.296-.006 4.14-.161 7.364-3.646 7.203-7.786l-3.179-81.782c9.389-19.197 12.907-40.5 10.177-61.741l-1.174-9.13h314.516c22.173 0 40.211-18.038 40.211-40.21v-271.3c.001-22.172-18.037-40.21-40.21-40.21zm25.211 311.512c0 13.901-11.31 25.21-25.211 25.21h-309.216l7.15-15h261.923c5.63 0 10.211-4.581 10.211-10.21v-271.302c0-5.63-4.581-10.211-10.211-10.211h-236.752c-4.143 0-7.5 3.358-7.5 7.5s3.357 7.5 7.5 7.5h231.963v261.723h-249.985l9.996-20.972c5.847-12.267 2.208-27.098-8.654-35.265-6.24-4.692-13.926-6.618-21.64-5.417-7.714 1.198-14.452 5.362-18.975 11.726l-32.573 45.83v-257.624h57.904c4.143 0 7.5-3.358 7.5-7.5s-3.357-7.5-7.5-7.5h-62.693c-5.63 0-10.211 4.581-10.211 10.21v271.301c0 2.98 1.292 5.658 3.334 7.526l-8.718 12.266c-5.971-4.72-9.617-11.983-9.617-19.791v-271.302c0-13.901 11.31-25.21 25.211-25.21h371.552c13.901 0 25.211 11.31 25.211 25.21v271.302z"/><path d="m469.967 168.666c-4.143 0-7.5 3.358-7.5 7.5v22.14c0 4.142 3.357 7.5 7.5 7.5s7.5-3.358 7.5-7.5v-22.14c0-4.142-3.357-7.5-7.5-7.5z"/><path d="m29.399 387.003c-17.549-34.166-19.127-74.095-4.33-109.549 1.595-3.823-.211-8.215-4.033-9.81-3.822-1.596-8.214.21-9.811 4.033-16.502 39.542-14.741 84.074 4.83 122.18l9.892 19.258-2.707 91.636c-.122 4.14 3.136 7.596 7.275 7.718.076.002.15.003.226.003 4.04 0 7.373-3.214 7.493-7.278l2.764-93.566c.037-1.267-.247-2.521-.825-3.648z"/><path d="m269.135 276.571c25.275 0 49.204-9.676 67.376-27.247 2.979-2.879 3.059-7.627.179-10.605-2.878-2.977-7.627-3.058-10.604-.179-15.36 14.852-35.586 23.031-56.95 23.031-45.185 0-81.945-36.761-81.945-81.946 0-45.186 36.761-81.946 81.945-81.946 45.186 0 81.946 36.761 81.946 81.946 0 12.242-2.636 24.019-7.835 35.004-1.771 3.744-.173 8.216 3.571 9.988 3.743 1.77 8.216.173 9.987-3.571 6.155-13.006 9.276-26.942 9.276-41.421 0-53.457-43.49-96.946-96.946-96.946s-96.945 43.49-96.945 96.946 43.489 96.946 96.945 96.946z"/><path d="m263.692 126.151c-6.27-4.326-14.354-4.816-21.098-1.276s-10.934 10.47-10.934 18.087v73.328c0 7.617 4.189 14.547 10.935 18.087 2.994 1.572 6.252 2.349 9.498 2.349 4.066 0 8.113-1.22 11.599-3.625l53.113-36.664c5.524-3.813 8.822-10.098 8.822-16.811s-3.298-12.997-8.822-16.811zm44.592 57.94-53.113 36.664c-2.437 1.682-4.732.798-5.604.339-.874-.458-2.905-1.844-2.905-4.805v-73.328c0-2.961 2.031-4.347 2.904-4.805.488-.256 1.421-.646 2.573-.646.91 0 1.957.243 3.032.985l53.113 36.664c2.115 1.46 2.344 3.609 2.344 4.466s-.229 3.006-2.344 4.466z"/></g></g></svg>