<svg id="Capa_1" enable-background="new 0 0 512 512" height="512" viewBox="0 0 512 512" width="512" xmlns="http://www.w3.org/2000/svg"><g><g><g><g><path d="m112.477 299.058h-93.731c-10.353 0-18.746-8.393-18.746-18.747v-93.731c0-10.353 8.393-18.746 18.746-18.746h93.731c10.353 0 18.746 8.393 18.746 18.746v93.731c0 10.354-8.393 18.747-18.746 18.747z" fill="#ffe07d"/></g><g><path d="m114.053 167.874c.198 2.603.299 5.234.299 7.888 0 56.684-45.951 102.635-102.635 102.635-3.963 0-7.871-.232-11.716-.67v2.544c0 10.353 8.393 18.746 18.746 18.746h93.731c10.353 0 18.746-8.393 18.746-18.746v-93.731c-.001-9.82-7.557-17.864-17.171-18.666z" fill="#ffd064"/></g></g></g><path d="m83.404 228.519c2.49-3.644 3.95-8.045 3.95-12.782 0-12.522-10.187-22.709-22.709-22.709h-19.057c-4.204 0-7.611 3.408-7.611 7.611v65.611c0 2.025.807 3.966 2.241 5.394 1.427 1.421 3.358 2.218 5.371 2.218h.034c.002 0 17.524-.078 22.353-.078 13.936 0 25.273-11.337 25.273-25.272-.002-8.127-3.864-15.367-9.845-19.993zm-18.758-20.267c4.128 0 7.486 3.358 7.486 7.486s-3.358 7.486-7.486 7.486c-1.411 0-11.447.018-11.447.018v-14.99zm3.328 50.31c-2.71 0-9.402.024-14.775.046v-20.127c1.473-.006 14.775-.017 14.775-.017 5.541 0 10.05 4.508 10.05 10.049 0 5.542-4.509 10.049-10.05 10.049z" fill="#ecf4ff"/><g><g><path d="m112.477 135.029h-93.731c-10.353 0-18.746-8.393-18.746-18.746v-93.731c0-10.353 8.393-18.746 18.746-18.746h93.731c10.353 0 18.746 8.393 18.746 18.746v93.731c0 10.353-8.393 18.746-18.746 18.746z" fill="#df75a5"/><path d="m114.053 3.806c.198 2.603.299 5.234.299 7.888 0 56.684-45.951 102.635-102.635 102.635-3.963 0-7.871-.232-11.716-.67v2.544c0 10.353 8.393 18.746 18.746 18.746h93.731c10.353 0 18.746-8.393 18.746-18.746v-93.731c-.001-9.821-7.557-17.864-17.171-18.666z" fill="#dd5790"/></g></g><g><g><g><path d="m397.477 135.029h-93.731c-10.353 0-18.746-8.393-18.746-18.746v-93.731c0-10.353 8.393-18.746 18.746-18.746h93.731c10.353 0 18.746 8.393 18.746 18.746v93.731c0 10.353-8.393 18.746-18.746 18.746z" fill="#b3e59f"/><path d="m399.053 3.885c.198 2.603.299 5.234.299 7.888 0 56.684-45.951 102.635-102.635 102.635-3.963 0-7.871-.232-11.716-.67v2.544c0 10.353 8.393 18.746 18.746 18.746h93.731c10.353 0 18.746-8.393 18.746-18.746v-93.73c-.001-9.821-7.557-17.864-17.171-18.667z" fill="#95d6a4"/></g></g><g><g><path d="m397.477 299.058h-93.731c-10.353 0-18.746-8.393-18.746-18.746v-93.731c0-10.353 8.393-18.746 18.746-18.746h93.731c10.353 0 18.746 8.393 18.746 18.746v93.731c0 10.353-8.393 18.746-18.746 18.746z" fill="#90d8f9"/><path d="m399.053 167.914c.198 2.603.299 5.234.299 7.888 0 56.684-45.951 102.635-102.635 102.635-3.963 0-7.871-.233-11.716-.67v2.544c0 10.353 8.393 18.746 18.746 18.746h93.731c10.353 0 18.746-8.393 18.746-18.746v-93.731c-.001-9.821-7.557-17.864-17.171-18.666z" fill="#75cef9"/></g></g></g><path d="m98.633 99.536-24.413-64.691c-.026-.069-.053-.138-.081-.207-1.409-3.425-4.711-5.638-8.415-5.638-.003 0-.006 0-.009 0-3.707.003-7.009 2.223-8.412 5.654-.024.057-.047.114-.068.172l-24.637 64.688c-1.497 3.929.476 8.326 4.403 9.822 3.928 1.495 8.326-.475 9.823-4.404l4.269-11.208h29.077l4.222 11.186c1.15 3.048 4.047 4.927 7.122 4.926.893 0 1.802-.158 2.687-.492 3.932-1.484 5.917-5.876 4.432-9.808zm-41.743-21.035 8.807-23.124 8.727 23.124z" fill="#ecf4ff"/><g fill="#4a80aa"><path d="m219.389 44.223h-55.36c-4.204 0-7.611-3.408-7.611-7.611s3.407-7.612 7.611-7.612h55.36c4.204 0 7.611 3.408 7.611 7.611s-3.407 7.612-7.611 7.612z"/><path d="m198.885 77.029h-34.856c-4.204 0-7.611-3.408-7.611-7.611s3.407-7.611 7.611-7.611h34.856c4.204 0 7.611 3.408 7.611 7.611s-3.407 7.611-7.611 7.611z"/><path d="m198.885 109.834h-34.856c-4.204 0-7.611-3.408-7.611-7.611s3.407-7.611 7.611-7.611h34.856c4.204 0 7.611 3.408 7.611 7.611s-3.407 7.611-7.611 7.611z"/><path d="m219.389 208.252h-55.36c-4.204 0-7.611-3.408-7.611-7.611 0-4.204 3.407-7.611 7.611-7.611h55.36c4.204 0 7.611 3.408 7.611 7.611s-3.407 7.611-7.611 7.611z"/><path d="m198.885 241.057h-34.856c-4.204 0-7.611-3.408-7.611-7.611 0-4.204 3.407-7.611 7.611-7.611h34.856c4.204 0 7.611 3.408 7.611 7.611.001 4.204-3.407 7.611-7.611 7.611z"/><path d="m198.885 273.863h-34.856c-4.204 0-7.611-3.408-7.611-7.611s3.407-7.612 7.611-7.612h34.856c4.204 0 7.611 3.408 7.611 7.612s-3.407 7.611-7.611 7.611z"/></g><g><g><path d="m356.681 109.834c-22.286 0-40.417-18.131-40.417-40.417s18.13-40.417 40.417-40.417c8.098 0 15.914 2.389 22.603 6.907 3.484 2.353 4.399 7.085 2.047 10.568-2.354 3.484-7.085 4.399-10.568 2.047-4.163-2.812-9.032-4.298-14.081-4.298-13.892 0-25.194 11.302-25.194 25.194s11.302 25.194 25.194 25.194c5.171 0 9.525-1.543 12.943-4.586.666-.593 1.301-1.25 1.891-1.953 2.7-3.222 7.501-3.644 10.723-.944s3.645 7.501.944 10.723c-1.062 1.268-2.218 2.46-3.433 3.543-6.203 5.52-14.179 8.439-23.069 8.439z" fill="#ecf4ff"/></g></g><g><g><path d="m328.205 273.863c-2.009 0-3.937-.794-5.362-2.21-1.433-1.422-2.243-3.356-2.25-5.375 0 0-.085-23.785-.085-32.905 0-7.481-.048-32.719-.048-32.719-.004-2.021.797-3.961 2.224-5.391 1.428-1.431 3.367-2.234 5.388-2.234h18.583c20.4 0 34.107 16.242 34.107 40.417 0 22.996-14.059 39.933-33.431 40.272-5.289.092-18.535.143-19.097.145-.01 0-.019 0-.029 0zm7.493-65.611c.014 8.07.034 20.293.034 25.122 0 5.782.035 17.468.059 25.228 4.043-.024 8.696-.06 11.275-.105 12.761-.223 18.474-12.743 18.474-25.051 0-12.18-4.96-25.194-18.884-25.194z" fill="#ecf4ff"/></g></g><path d="m504.388 44.223h-55.36c-4.204 0-7.612-3.408-7.612-7.611s3.409-7.612 7.613-7.612h55.36c4.204 0 7.612 3.408 7.612 7.611s-3.408 7.612-7.613 7.612z" fill="#4a80aa"/><path d="m483.885 77.029h-34.856c-4.204 0-7.612-3.408-7.612-7.611s3.407-7.611 7.612-7.611h34.856c4.204 0 7.611 3.408 7.611 7.611s-3.407 7.611-7.611 7.611z" fill="#4a80aa"/><path d="m483.885 109.834h-34.856c-4.204 0-7.612-3.408-7.612-7.611s3.407-7.611 7.612-7.611h34.856c4.204 0 7.611 3.408 7.611 7.611s-3.407 7.611-7.611 7.611z" fill="#4a80aa"/><path d="m504.388 208.252h-55.36c-4.204 0-7.612-3.408-7.612-7.611 0-4.204 3.407-7.611 7.612-7.611h55.36c4.204 0 7.612 3.408 7.612 7.611s-3.407 7.611-7.612 7.611z" fill="#4a80aa"/><path d="m483.885 241.057h-34.856c-4.204 0-7.612-3.408-7.612-7.611 0-4.204 3.407-7.611 7.612-7.611h34.856c4.204 0 7.611 3.408 7.611 7.611.001 4.204-3.407 7.611-7.611 7.611z" fill="#4a80aa"/><path d="m483.885 273.863h-34.856c-4.204 0-7.612-3.408-7.612-7.611s3.407-7.612 7.612-7.612h34.856c4.204 0 7.611 3.408 7.611 7.612s-3.407 7.611-7.611 7.611z" fill="#4a80aa"/><g><path d="m84.873 498.686 10.439 7.574c1.733 1.257 3.819 1.934 5.96 1.934h173.568c4.1 0 7.028-3.969 5.818-7.887l-8.271-26.771c-.245-.793-.392-1.613-.437-2.441l-1.966-35.918c-.183-3.348-.776-6.661-1.766-9.865l-31.954-103.43c-3.282-10.622-14.337-17.117-25.069-14.215-11.267 3.047-17.672 14.794-14.256 25.85l-6.21-20.1c-3.282-10.622-14.337-17.117-25.069-14.215-11.267 3.047-17.672 14.794-14.256 25.85l-5.907-19.12c-3.282-10.622-14.337-17.118-25.069-14.215-11.267 3.047-17.672 14.794-14.256 25.85l-20.432-66.137c-3.282-10.622-14.337-17.118-25.069-14.215-11.267 3.047-17.672 14.794-14.256 25.85l36.313 117.54c-3.416-11.056-15.33-17.144-26.353-13.304-10.499 3.657-15.964 15.256-12.682 25.878l26.081 84.42c2.619 8.478 7.917 15.877 15.099 21.087z" fill="#ffddce"/><path d="m160.35 508.194h114.49c4.1 0 7.028-3.969 5.818-7.887l-8.271-26.771c-.245-.793-.392-1.613-.437-2.441l-1.966-35.92c-.183-3.347-.776-6.66-1.766-9.862l-20.536-66.473c-7.931 44.395-29.446 107.694-87.332 149.354z" fill="#ffcbbe"/></g><g fill="#ffcbbe"><path d="m65.206 236.552 44.485 143.99c1.01 3.268 4.02 5.367 7.271 5.367.743 0 1.5-.11 2.249-.341 4.017-1.241 6.267-5.503 5.026-9.519l-38.525-124.698c-2.845-9.079-11.374-15.104-20.506-14.799z"/><path d="m124.963 291.053 23.908 77.384c1.01 3.268 4.02 5.367 7.271 5.367.743 0 1.501-.11 2.249-.341 4.017-1.241 6.267-5.503 5.026-9.519l-17.949-58.096c-2.846-9.077-11.375-15.1-20.505-14.795z"/><path d="m170.195 298.539 17.855 57.794c1.01 3.268 4.02 5.367 7.271 5.367.743 0 1.501-.11 2.249-.341 4.017-1.241 6.267-5.503 5.026-9.519l-11.897-38.508c-2.846-9.076-11.374-15.098-20.504-14.793z"/><path d="m215.766 307.004 11.74 37.999c1.01 3.268 4.02 5.367 7.271 5.367.743 0 1.5-.11 2.249-.341 3.824-1.181 6.04-5.102 5.173-8.941l-5.934-19.206c-2.816-9.112-11.353-15.167-20.499-14.878z"/><path d="m82.524 380.045c-2.982-8.75-11.336-14.219-20.214-13.855l19.65 63.604-4.619 8.75c-1.963 3.718-.541 8.322 3.176 10.285 1.134.599 2.349.882 3.547.882 2.732 0 5.374-1.475 6.738-4.059l6.092-11.539c.943-1.785 1.137-3.872.541-5.801z"/></g></g></svg>