<svg id="Capa_1" enable-background="new 0 0 511.998 511.998" height="512" viewBox="0 0 511.998 511.998" width="512" xmlns="http://www.w3.org/2000/svg"><g><g><path d="m487.335 329.294-88.717 19.431c-9.983 2.199-17.787 10.003-19.986 20.005l-19.431 88.717c-3.803 17.391-20.916 23.749-34.465 19.134-7.863-2.674-14.519-9.072-16.717-19.134l-19.431-88.717c-2.199-10.003-10.003-17.807-20.006-20.005l-88.717-19.431c-27.453-6.002-27.453-45.161 0-51.182l88.717-19.431c10.003-2.199 17.807-10.003 20.006-19.986l19.431-88.717c3.09-14.123 14.915-20.976 26.522-20.58 10.973.357 21.729 7.23 24.66 20.58l19.431 88.717c2.199 9.983 10.003 17.787 19.986 19.986l88.717 19.431c27.473 6.022 27.473 45.181 0 51.182z" fill="#f9ef63"/><path d="m330.7 476.581c.93.971 1.921 1.446 2.892 1.446-3.011 0-6.002-.475-8.854-1.446-7.863-2.674-14.518-9.072-16.717-19.134l-19.431-88.717c-2.198-10.003-10.002-17.807-20.005-20.005l-88.717-19.431c-27.453-6.002-27.453-45.161 0-51.182l88.717-19.431c10.003-2.198 17.807-10.003 20.005-19.985l19.431-88.717c3.011-13.747 14.281-20.6 25.572-20.6-3.704 0-7.369 6.853-8.359 20.6l-6.358 88.717c-.713 9.982-3.268 17.787-6.556 19.985l-29.02 19.431c-16.829 13.878-26.09 33.655 0 51.182l29.018 19.431c3.288 2.198 5.844 10.002 6.556 20.005l6.358 88.717c.714 10.062 2.893 16.461 5.468 19.134z" fill="#f1d333"/></g><g><path d="m231.192 138.413-61.424 13.453c-6.912 1.522-12.315 6.925-13.837 13.851l-13.453 61.424c-2.633 12.041-14.482 16.443-23.862 13.247-5.444-1.851-10.052-6.281-11.574-13.247l-13.453-61.424c-1.522-6.925-6.925-12.329-13.851-13.851l-61.424-13.453c-19.007-4.155-19.007-31.267 0-35.436l61.424-13.453c6.925-1.522 12.329-6.925 13.851-13.837l13.453-61.424c2.139-9.778 10.326-14.523 18.363-14.249 7.597.247 15.044 5.005 17.074 14.249l13.453 61.424c1.522 6.912 6.925 12.315 13.837 13.837l61.424 13.453c19.02 4.169 19.02 31.281-.001 35.436z" fill="#f9ef63"/><path d="m122.744 240.388c.644.672 1.33 1.001 2.002 1.001-2.085 0-4.155-.329-6.13-1.001-5.444-1.851-10.052-6.281-11.574-13.247l-13.453-61.424c-1.522-6.926-6.925-12.329-13.851-13.851l-61.424-13.453c-19.007-4.155-19.007-31.267 0-35.436l61.424-13.453c6.925-1.522 12.329-6.925 13.851-13.837l13.453-61.424c2.084-9.518 9.887-14.263 17.704-14.263-2.565 0-5.102 4.745-5.787 14.262l-4.402 61.424c-.494 6.911-2.263 12.315-4.539 13.837l-20.09 13.453c-11.652 9.608-18.064 23.302 0 35.436l20.09 13.453c2.277 1.522 4.046 6.925 4.539 13.851l4.402 61.424c.494 6.967 2.002 11.397 3.785 13.248z" fill="#f1d333"/></g><g><path d="m192.496 413.458-34.099 7.469c-3.837.845-6.837 3.845-7.682 7.689l-7.469 34.099c-1.462 6.684-8.039 9.128-13.247 7.354-3.022-1.028-5.581-3.487-6.425-7.354l-7.469-34.099c-.845-3.845-3.845-6.844-7.689-7.689l-34.099-7.469c-10.552-2.307-10.552-17.358 0-19.672l34.099-7.469c3.845-.845 6.844-3.845 7.689-7.682l7.469-34.099c1.188-5.428 5.733-8.062 10.194-7.91 4.218.137 8.352 2.779 9.478 7.91l7.469 34.099c.845 3.837 3.845 6.837 7.682 7.682l34.099 7.469c10.559 2.314 10.559 17.365 0 19.672z" fill="#f9ef63"/><path d="m132.291 470.069c.358.373.738.556 1.111.556-1.157 0-2.307-.183-3.403-.556-3.022-1.028-5.58-3.487-6.425-7.354l-7.469-34.099c-.845-3.845-3.845-6.844-7.689-7.689l-34.099-7.469c-10.552-2.307-10.552-17.358 0-19.673l34.099-7.469c3.845-.845 6.844-3.845 7.689-7.682l7.469-34.099c1.157-5.284 5.489-7.918 9.829-7.918-1.424 0-2.832 2.634-3.213 7.918l-2.444 34.099c-.274 3.837-1.256 6.837-2.52 7.682l-11.153 7.469c-6.468 5.334-10.028 12.936 0 19.673l11.153 7.469c1.264.845 2.246 3.845 2.52 7.689l2.444 34.099c.274 3.868 1.111 6.327 2.101 7.354z" fill="#f1d333"/></g><g fill="#f9ef63"><path d="m429.576 82.086h-4.15c-3.824 0-6.923-3.1-6.923-6.923v-4.151c0-4.168-3.212-7.802-7.378-7.927-4.311-.129-7.845 3.327-7.845 7.608v4.47c0 3.824-3.1 6.923-6.923 6.923h-4.151c-4.168 0-7.802 3.211-7.927 7.377-.129 4.311 3.326 7.846 7.608 7.846h4.47c3.824 0 6.923 3.1 6.923 6.923v4.151c0 4.168 3.212 7.802 7.378 7.927 4.311.129 7.845-3.327 7.845-7.608v-4.47c0-3.824 3.1-6.923 6.923-6.923h4.469c4.282 0 7.737-3.535 7.608-7.846-.125-4.166-3.76-7.377-7.927-7.377z"/><path d="m254.295 477.771h-4.15c-3.824 0-6.923-3.1-6.923-6.923v-4.151c0-4.168-3.212-7.802-7.378-7.927-4.311-.129-7.845 3.327-7.845 7.608v4.47c0 3.824-3.1 6.923-6.923 6.923h-4.151c-4.168 0-7.802 3.211-7.927 7.377-.129 4.311 3.326 7.846 7.608 7.846h4.47c3.824 0 6.923 3.1 6.923 6.923v4.151c0 4.168 3.212 7.802 7.378 7.927 4.311.129 7.845-3.327 7.845-7.608v-4.47c0-3.824 3.1-6.923 6.923-6.923h4.469c4.282 0 7.737-3.535 7.608-7.846-.126-4.166-3.76-7.377-7.927-7.377z"/><path d="m57.303 263.586h-4.15c-3.824 0-6.923-3.1-6.923-6.923v-4.151c0-4.168-3.212-7.802-7.378-7.927-4.311-.129-7.845 3.327-7.845 7.608v4.47c0 3.824-3.1 6.923-6.923 6.923h-4.151c-4.168 0-7.802 3.211-7.927 7.377-.129 4.311 3.326 7.846 7.608 7.846h4.47c3.824 0 6.923 3.1 6.923 6.923v4.151c0 4.168 3.212 7.802 7.378 7.927 4.311.129 7.845-3.327 7.845-7.608v-4.47c0-3.824 3.1-6.923 6.923-6.923h4.469c4.282 0 7.737-3.535 7.608-7.846-.125-4.166-3.76-7.377-7.927-7.377z"/></g></g></svg>