<svg id="Capa_1" enable-background="new 0 0 512 512" height="512" viewBox="0 0 512 512" width="512" xmlns="http://www.w3.org/2000/svg"><g><g><path d="m512 448.36-63.64 63.64-119.555-119.556c-11.716-11.716-11.716-30.711 0-42.426l21.213-21.213c11.716-11.716 30.711-11.716 42.426 0z" fill="#4d6666"/></g><path d="m480.18 480.18 31.82-31.82-119.556-119.555c-11.716-11.716-30.71-11.716-42.426 0l-10.607 10.607z" fill="#3a4d4d"/><g><g id="Magic_1_"><g><g><path d="m392.444 328.805-63.64 63.64-212.131-212.133 63.64-63.64z" fill="#ffe566"/></g><g><path d="m137.886 328.805-21.213 21.213c-23.399-23.399-61.454-23.399-84.853 0l-21.213-21.213c23.399-23.399 23.399-61.454 0-84.853l21.213-21.213c23.399 23.399 61.454 23.399 84.853 0l21.213 21.213c-23.399 23.399-23.399 61.454 0 84.853z" fill="#ffe566"/></g><g><path d="m350.018 116.673-21.213 21.213c-23.399-23.399-61.454-23.399-84.853 0l-21.213-21.213c23.399-23.399 23.399-61.454 0-84.853l21.213-21.213c23.399 23.399 61.454 23.399 84.853 0l21.213 21.213c-23.399 23.399-23.399 61.454 0 84.853z" fill="#ffbe40"/></g><g><path d="m127.279 106.066-21.213 21.213c-23.399-23.399-61.454-23.399-84.853 0l-21.213-21.213c23.399-23.399 23.399-61.454 0-84.853l21.213-21.213c23.399 23.399 61.454 23.399 84.853 0l21.213 21.213c-23.399 23.399-23.399 61.454 0 84.853z" fill="#ffe566"/></g></g><g><g><g><path d="m165.312 38.033h30v30h-30z" fill="#c7cfe1" transform="matrix(.707 -.707 .707 .707 15.312 143.033)"/></g></g></g><g><g><path d="m38.033 165.312h30v30h-30z" fill="#e1e6f0" transform="matrix(.707 -.707 .707 .707 -111.967 90.312)"/></g></g><g><g><path d="m292.591 165.312h30v30h-30z" fill="#c7cfe1" transform="matrix(.707 -.707 .707 .707 -37.409 270.312)"/></g></g><g><g><path d="m165.312 292.591h30v30h-30z" fill="#e1e6f0" transform="matrix(.707 -.707 .707 .707 -164.688 217.591)"/></g></g></g><g fill="#ffbe40"><path d="m247.968 88.649h45v300h-45z" transform="matrix(.707 -.707 .707 .707 -89.532 261.149)"/><path d="m116.673 116.673 10.607-10.607c-23.399-23.399-23.399-61.454 0-84.853l-21.214-21.213c-23.399 23.399-61.454 23.399-84.853 0l-10.606 10.607z"/></g></g></g></svg>