<svg height="464pt" viewBox="0 -20 464 464" width="464pt" xmlns="http://www.w3.org/2000/svg"><path d="m176 288h-144v-184h96l48 48zm0 0" fill="#ebebeb"/><path d="m144 320h-144v-184h32v152h112zm0 0" fill="#fbd699"/><path d="m176 152h-48v-48zm0 0" fill="#e4e4e2"/><path d="m464 312h-144v-184h96l48 48zm0 0" fill="#ebebeb"/><path d="m464 176h-48v-48zm0 0" fill="#e4e4e2"/><g fill="#8aced8"><path d="m56 168h56v16h-56zm0 0"/><path d="m56 200h96v16h-96zm0 0"/><path d="m56 232h96v16h-96zm0 0"/></g><path d="m424 232c0 17.671875-14.328125 32-32 32s-32-14.328125-32-32 14.328125-32 32-32 32 14.328125 32 32zm0 0" fill="#fbd699"/><path d="m392 232-27.34375 16.40625c5.71875 9.664062 16.113281 15.589844 27.34375 15.589844s21.625-5.925782 27.34375-15.589844zm0 0" fill="#99d8aa"/><path d="m392 200c-11.539062-.0625-22.207031 6.128906-27.882812 16.175781-5.675782 10.046875-5.46875 22.378907.539062 32.230469l27.34375-16.40625zm0 0" fill="#ea6b65"/><path d="m376 32v23.0625c-86.695312-77.628906-219.316406-72.589844-299.863281 11.402344l11.542969 11.070312c73.378906-76.5 193.707031-82.4375 274.265624-13.535156h-17.945312v16h40c4.417969 0 8-3.582031 8-8v-40zm0 0" fill="#ea6b65"/><path d="m233.910156 408c-47.652344.074219-93.753906-16.957031-129.910156-48h17.953125v-16h-40c-4.417969 0-8 3.582031-8 8v40h16v-23.066406c86.691406 77.632812 219.3125 72.589844 299.863281-11.398438l-11.550781-11.070312c-37.609375 39.488281-89.820313 61.746094-144.355469 61.535156zm0 0" fill="#aae5c8"/></svg>