<svg enable-background="new 0 0 24 24" height="512" viewBox="0 0 24 24" width="512" xmlns="http://www.w3.org/2000/svg"><path d="m14 13c-1.654 0-3-1.346-3-3s1.346-3 3-3h2v-1-3c0-1.654-1.346-3-3-3h-10.75c-.329 0-.637.162-.824.433-.186.27-.228.616-.11.923l7.25 19c.147.388.52.644.934.644h3.5c1.654 0 3-1.346 3-3v-4-1z" fill="#2196f3"/><path d="m11 10h-6.385l3.952 10.357c.146.387.519.643.933.643h3.5c1.654 0 3-1.346 3-3v-4-1h-2c-1.654 0-3-1.346-3-3z" fill="#1d83d4"/><path d="m18.617 14.924c-.373-.155-.617-.52-.617-.924v-3h-4c-.552 0-1-.448-1-1 0-.553.448-1 1-1h4v-3c0-.404.244-.77.617-.924.374-.154.804-.069 1.09.217l4 4c.391.391.391 1.023 0 1.414l-4 4c-.286.286-.716.372-1.09.217z" fill="#607d8b"/><path d="m24 10h-11c0 .552.448 1 1 1h4v3c0 .404.244.769.617.924.124.051.254.076.383.076.26 0 .516-.102.707-.293l4-4c.195-.195.293-.451.293-.707z" fill="#546d79"/><path d="m8.646 2.102-6.009-2.003c-1.356-.417-2.637.585-2.637 1.901v18c0 .855.545 1.617 1.354 1.898l6.009 2.003c.22.068.423.099.637.099 1.103 0 2-.897 2-2v-18c0-.855-.545-1.617-1.354-1.898z" fill="#64b5f6"/><path d="m10 12h-10v8c0 .855.545 1.617 1.354 1.898l6.009 2.003c.22.068.423.099.637.099 1.103 0 2-.897 2-2z" fill="#579ed6"/></svg>