<svg id="Capa_1" enable-background="new 0 0 512 512" height="512" viewBox="0 0 512 512" width="512" xmlns="http://www.w3.org/2000/svg" xmlns:xlink="http://www.w3.org/1999/xlink"><linearGradient id="SVGID_1_" gradientUnits="userSpaceOnUse" x1="68.572" x2="395.005" y1="430.558" y2="41.53"><stop offset="0" stop-color="#d2deff" stop-opacity="0"/><stop offset=".6852" stop-color="#d2deff"/></linearGradient><linearGradient id="SVGID_2_" gradientUnits="userSpaceOnUse" x1="280.921" x2="280.921" y1="32.983" y2="404.122"><stop offset=".0028" stop-color="#ff7eb8" stop-opacity="0"/><stop offset="1" stop-color="#ff7eb8" stop-opacity=".6"/></linearGradient><g><g><path d="m16.074 302.88c18.727 64.003 72.707 194.564 163.922 182.845 91.486-11.755 55.758-129.725 139.508-145.894 36.867-7.118 61.857 56.689 98.806 54.704 47.588-2.557 71.81-49.663 85.108-89.264 28.197-83.968-14.029-226.352-112.858-251.011-86.245-21.519-96.333 83.855-171.322 53.248-42.149-17.203-37.938-68.576-89.272-78.942-155.299-31.36-138.811 189.15-113.892 274.314z" fill="url(#SVGID_1_)"/></g><g><path d="m439.292 370.267c-5.767-5.084-10.851-13.219-15.252-24.404l-120.066-309.306c-.836-2.154-2.91-3.574-5.221-3.574h-31.611c-2.308 0-4.38 1.416-5.218 3.567l-112.429 288.468c-11.564 29.997-24.856 47.464-39.871 52.399-2.298.756-3.853 2.891-3.853 5.31v15.794c0 3.093 2.507 5.601 5.601 5.601h90.482c3.093 0 5.601-2.507 5.601-5.601v-14.869c0-2.897-2.21-5.335-5.097-5.576-12.413-1.035-21.981-3.723-28.713-8.064l-.089-.058c-4.659-3.013-6.568-8.879-4.574-14.057l32.072-83.316h106.857l23.089 63.114c4.067 10.168 6.101 18.303 6.101 24.404 0 6.442-2.716 10.931-8.134 13.473-4.669 2.188-12.098 3.687-22.286 4.493-2.913.23-5.168 2.659-5.168 5.581v14.876c0 3.093 2.508 5.601 5.601 5.601h143.357c3.093 0 5.601-2.507 5.601-5.601v-15.429c0-2.518-1.68-4.717-4.107-5.389-4.131-1.145-8.355-3.626-12.673-7.437zm-226.524-128.12 43.107-111.984 41.061 111.984z" fill="#ff5ba8"/><path d="m439.292 370.267c-5.767-5.084-10.851-13.219-15.252-24.404l-120.066-309.306c-.836-2.154-2.91-3.574-5.221-3.574h-31.611c-2.308 0-4.38 1.416-5.218 3.567l-112.429 288.468c-11.564 29.997-24.856 47.464-39.871 52.399-2.298.756-3.853 2.891-3.853 5.31v15.794c0 3.093 2.507 5.601 5.601 5.601h90.482c3.093 0 5.601-2.507 5.601-5.601v-14.869c0-2.897-2.21-5.335-5.097-5.576-12.413-1.035-21.981-3.723-28.713-8.064l-.089-.058c-4.659-3.013-6.568-8.879-4.574-14.057l32.072-83.316h106.857l23.089 63.114c4.067 10.168 6.101 18.303 6.101 24.404 0 6.442-2.716 10.931-8.134 13.473-4.669 2.188-12.098 3.687-22.286 4.493-2.913.23-5.168 2.659-5.168 5.581v14.876c0 3.093 2.508 5.601 5.601 5.601h143.357c3.093 0 5.601-2.507 5.601-5.601v-15.429c0-2.518-1.68-4.717-4.107-5.389-4.131-1.145-8.355-3.626-12.673-7.437zm-226.524-128.12 43.107-111.984 41.061 111.984z" fill="url(#SVGID_2_)"/><g fill="#2d58e0"><path d="m76.597 70.952c2.761 0 5-2.239 5-5s-2.239-5-5-5h-8.408v-22.969h1.732c2.761 0 5-2.239 5-5s-2.239-5-5-5h-13.464c-2.761 0-5 2.239-5 5s2.239 5 5 5h1.733v22.968h-2.26c-2.761 0-5 2.239-5 5s2.239 5 5 5h2.259v88.643h-2.259c-2.761 0-5 2.239-5 5s2.239 5 5 5h2.259v88.643h-2.259c-2.761 0-5 2.239-5 5s2.239 5 5 5h2.259v88.643h-2.259c-2.761 0-5 2.239-5 5s2.239 5 5 5h2.259v33.859h-1.733c-2.761 0-5 2.239-5 5s2.239 5 5 5h13.464c2.761 0 5-2.239 5-5s-2.239-5-5-5h-1.732v-33.859h8.408c2.761 0 5-2.239 5-5s-2.239-5-5-5h-8.408v-88.643h8.408c2.761 0 5-2.239 5-5s-2.239-5-5-5h-8.408v-88.643h8.408c2.761 0 5-2.239 5-5s-2.239-5-5-5h-8.408v-88.642z"/><path d="m100.597 96.834h16.667c2.761 0 5-2.239 5-5s-2.239-5-5-5h-16.667c-2.761 0-5 2.239-5 5s2.238 5 5 5z"/><path d="m100.597 116.164h66.667c2.761 0 5-2.239 5-5s-2.239-5-5-5h-66.667c-2.761 0-5 2.239-5 5s2.238 5 5 5z"/><path d="m172.264 130.495c0-2.761-2.239-5-5-5h-66.667c-2.761 0-5 2.239-5 5s2.239 5 5 5h66.667c2.761 0 5-2.239 5-5z"/><path d="m456.07 435.553c-2.762 0-5 2.239-5 5v1.732h-30.807v-5.308c0-2.761-2.238-5-5-5s-5 2.239-5 5v5.308h-57.172v-5.308c0-2.761-2.238-5-5-5s-5 2.239-5 5v5.308h-57.171v-5.308c0-2.761-2.238-5-5-5s-5 2.239-5 5v5.308h-57.17v-5.308c0-2.761-2.239-5-5-5s-5 2.239-5 5v5.308h-57.171v-5.308c0-2.761-2.239-5-5-5s-5 2.239-5 5v5.308h-30.807v-1.732c0-2.761-2.239-5-5-5s-5 2.239-5 5v13.464c0 2.761 2.239 5 5 5s5-2.239 5-5v-1.732h30.807v1.732c0 2.761 2.239 5 5 5s5-2.239 5-5v-1.732h57.171v1.732c0 2.761 2.239 5 5 5s5-2.239 5-5v-1.732h57.171v1.732c0 2.761 2.238 5 5 5s5-2.239 5-5v-1.732h57.171v1.732c0 2.761 2.238 5 5 5s5-2.239 5-5v-1.732h57.172v1.732c0 2.761 2.238 5 5 5s5-2.239 5-5v-1.732h30.807v1.732c0 2.761 2.238 5 5 5s5-2.239 5-5v-13.464c-.001-2.761-2.239-5-5.001-5z"/></g><path d="m196.264 59.983c-2.761 0-5-2.239-5-5 0-3.309-2.691-6-6-6-2.761 0-5-2.239-5-5s2.239-5 5-5c3.309 0 6-2.691 6-6 0-2.761 2.239-5 5-5s5 2.239 5 5c0 3.309 2.691 6 6 6 2.761 0 5 2.239 5 5s-2.239 5-5 5c-3.309 0-6 2.691-6 6 0 2.762-2.239 5-5 5z" fill="#01eca5"/><path d="m281.254 363.338c-2.762 0-5-2.239-5-5 0-3.309-2.691-6-6-6-2.762 0-5-2.239-5-5s2.238-5 5-5c3.309 0 6-2.691 6-6 0-2.761 2.238-5 5-5s5 2.239 5 5c0 3.309 2.691 6 6 6 2.762 0 5 2.239 5 5s-2.238 5-5 5c-3.309 0-6 2.691-6 6 0 2.761-2.238 5-5 5z" fill="#ff7eb8"/><path d="m415.264 140.577c-2.762 0-5-2.239-5-5 0-3.309-2.691-6-6-6-2.762 0-5-2.239-5-5s2.238-5 5-5c3.309 0 6-2.692 6-6.001 0-2.761 2.238-5 5-5s5 2.239 5 5c0 3.309 2.691 6.001 6 6.001 2.762 0 5 2.239 5 5s-2.238 5-5 5c-3.309 0-6 2.691-6 6 0 2.761-2.239 5-5 5z" fill="#ff7eb8"/><g fill="#6583fe"><path d="m437.264 235.971c-1.279 0-2.56-.488-3.535-1.464-1.953-1.953-1.953-5.119 0-7.071l10-10c1.951-1.952 5.119-1.952 7.07 0 1.953 1.953 1.953 5.119 0 7.071l-10 10c-.976.976-2.256 1.464-3.535 1.464z"/><path d="m141.578 184.156c-1.28 0-2.559-.488-3.536-1.464-1.953-1.953-1.953-5.119 0-7.071l10-10c1.953-1.952 5.118-1.952 7.071 0 1.953 1.953 1.953 5.119 0 7.071l-10 10c-.976.976-2.255 1.464-3.535 1.464z"/></g></g></g></svg>