<svg id="Capa_1" enable-background="new 0 0 512 512" height="512" viewBox="0 0 512 512" width="512" xmlns="http://www.w3.org/2000/svg"><g><g><g><circle cx="256" cy="256" fill="#9ec8fc" r="225.798"/></g></g><g><g><circle cx="256" cy="256" fill="#bed9fd" r="161.017"/></g></g><g><g><circle cx="256" cy="256" fill="#62a4fb" r="79.017"/></g></g><g><g><path d="m256 30.202c-5.042 0-10.04.183-15 .508 117.709 7.723 210.798 105.627 210.798 225.29s-93.089 217.567-210.798 225.29c4.96.325 9.958.508 15 .508 124.705 0 225.798-101.093 225.798-225.798s-101.093-225.798-225.798-225.798z" fill="#80b6fc"/></g></g><g><g><path d="m256 94.983c-5.059 0-10.06.245-15 .701 81.893 7.567 146.017 76.447 146.017 160.315s-64.125 152.749-146.017 160.316c4.94.457 9.941.701 15 .701 88.927 0 161.017-72.09 161.017-161.017s-72.09-161.016-161.017-161.016z" fill="#9ec8fc"/></g></g><g><g><path d="m256 176.983c-5.131 0-10.142.506-15 1.44 36.464 7.01 64.017 39.068 64.017 77.577s-27.553 70.567-64.017 77.577c4.858.934 9.869 1.44 15 1.44 43.64 0 79.017-35.377 79.017-79.017s-35.377-79.017-79.017-79.017z" fill="#5392f9"/></g></g><g><g><ellipse cx="102.317" cy="90.572" fill="#ffeba8" rx="27.799" ry="27.799" transform="matrix(.383 -.924 .924 .383 -20.516 150.44)"/></g></g><g><g><ellipse cx="386.217" cy="352.153" fill="#ef9bba" rx="27.799" ry="27.799" transform="matrix(.707 -.707 .707 .707 -135.89 376.24)"/></g></g><g><g><ellipse cx="94.983" cy="415.017" fill="#cceffd" rx="27.799" ry="27.799" transform="matrix(.707 -.707 .707 .707 -265.641 188.719)"/></g></g><g><g><path d="m504.5 248.5h-15.337c-1.659-51.24-20.254-100.872-52.81-140.499-2.63-3.201-7.355-3.664-10.556-1.034-3.201 2.629-3.664 7.356-1.034 10.556 30.357 36.951 47.74 83.203 49.393 130.978h-49.815c-3.829-86.967-73.875-157.013-160.841-160.842v-49.815c52.929 1.795 103.032 22.538 141.799 58.895 1.447 1.357 3.29 2.029 5.129 2.029 2 0 3.996-.795 5.472-2.37 2.833-3.021 2.681-7.768-.34-10.601-41.557-38.974-95.303-61.161-152.06-62.962v-15.335c0-4.142-3.358-7.5-7.5-7.5s-7.5 3.358-7.5 7.5v15.329c-44.486 1.404-87.166 15.289-123.911 40.383-6.08-4.958-13.834-7.938-22.273-7.938-19.464 0-35.299 15.835-35.299 35.299 0 7.515 2.368 14.484 6.387 20.214-31.166 39.163-48.947 87.654-50.567 137.713h-15.337c-4.142 0-7.5 3.358-7.5 7.5s3.358 7.5 7.5 7.5h15.33c1.466 47.099 16.737 91.66 44.453 129.676-4.752 6.014-7.599 13.599-7.599 21.841 0 19.464 15.835 35.299 35.299 35.299 8.086 0 15.54-2.739 21.498-7.33 38.525 28.806 83.969 44.687 132.018 46.184v15.33c0 4.142 3.358 7.5 7.5 7.5s7.5-3.358 7.5-7.5v-15.334c59.504-1.867 115.175-25.908 157.466-68.199 42.292-42.291 66.332-97.962 68.199-157.466h15.336c4.142 0 7.5-3.358 7.5-7.5 0-4.143-3.358-7.501-7.5-7.501zm-138.581 103.653c0-11.193 9.106-20.299 20.299-20.299s20.299 9.106 20.299 20.299-9.106 20.299-20.299 20.299-20.299-9.106-20.299-20.299zm20.298-35.299c-19.464 0-35.299 15.835-35.299 35.299 0 7.238 2.192 13.972 5.944 19.578-26.089 22.775-58.772 35.939-93.363 37.604v-67.147c41.734-3.601 75.087-36.955 78.688-78.689h67.14c-.904 19.065-5.263 37.464-13.001 54.837-3.204-.959-6.596-1.482-10.109-1.482zm-216.406-53.354c3.601 41.734 36.954 75.087 78.689 78.689v67.143c-78.694-3.805-142.027-67.138-145.831-145.831h67.142zm93.689 0h63.622c-3.503 33.457-30.165 60.119-63.622 63.622zm0-15v-63.622c33.457 3.503 60.119 30.165 63.622 63.622zm-15 0h-63.622c3.503-33.456 30.165-60.119 63.622-63.622zm0 15v63.622c-33.457-3.503-60.119-30.165-63.622-63.622zm160.831-15h-67.143c-3.601-41.734-36.954-75.087-78.688-78.689v-67.143c78.694 3.805 142.027 67.138 145.831 145.832zm-307.014-178.227c11.193 0 20.299 9.106 20.299 20.299s-9.106 20.299-20.299 20.299-20.299-9.106-20.299-20.299 9.106-20.299 20.299-20.299zm-17.87 50.723c5.246 3.093 11.352 4.876 17.87 4.876 19.464 0 35.299-15.835 35.299-35.299 0-5.596-1.315-10.889-3.643-15.595 34.033-22.99 73.445-35.757 114.527-37.143v49.83c-47.35 2.089-91.486 23.876-122.025 60.528-2.651 3.182-2.221 7.911.961 10.563 3.182 2.651 7.911 2.222 10.563-.961 27.679-33.221 67.617-53.041 110.5-55.118v67.136c-41.734 3.601-75.088 36.955-78.689 78.689h-67.125c1.138-23.259 7.535-46.062 18.706-66.372 1.996-3.629.672-8.19-2.957-10.186-3.628-1.995-8.189-.672-10.186 2.957-12.385 22.517-19.427 47.818-20.577 73.601h-49.827c1.601-46.302 17.968-91.145 46.603-127.506zm10.536 314.319c-11.193 0-20.299-9.106-20.299-20.299s9.106-20.299 20.299-20.299 20.299 9.106 20.299 20.299-9.106 20.299-20.299 20.299zm31.196-3.806c2.615-4.926 4.103-10.538 4.103-16.492 0-19.464-15.835-35.299-35.299-35.299-5.798 0-11.269 1.414-16.101 3.902-25.501-35.277-39.595-76.527-41.046-120.12h49.822c3.829 86.966 73.876 157.012 160.841 160.841v49.822c-44.482-1.481-86.56-16.14-122.32-42.654zm284.181-21.149c-39.458 39.458-91.363 61.935-146.86 63.797v-49.811c38.671-1.695 75.205-16.479 104.185-42.167 5.39 3.339 11.739 5.273 18.532 5.273 19.464 0 35.299-15.835 35.299-35.299 0-10.558-4.665-20.04-12.035-26.515 8.939-19.655 13.924-40.512 14.858-62.138h49.817c-1.861 55.497-24.338 107.402-63.796 146.86z"/></g></g></g></svg>